<svg id="Layer_1" data-name="Layer 1" xmlns="http://www.w3.org/2000/svg" viewBox="0 0 770.03 150.4"><defs><style>.cls-1{fill:#fff;}.cls-2{fill:#0069b4;}.cls-3{fill:#1d1d1b;}</style></defs><rect class="cls-1" x="22.36" y="5.86" width="149.53" height="112.22"/><g id="Logo"><path class="cls-2" d="M85.71,37.51H44.1a6,6,0,0,0-6,6V143.7a6,6,0,0,0,6,6H86.36A74.14,74.14,0,0,1,85.71,37.5h0ZM471.78,143.7V43.52a6,6,0,0,0-6-6H184.63A74.14,74.14,0,0,1,184,149.72h281.8a6,6,0,0,0,6-6h0Z" transform="translate(-38.09 -31.64)"/><path class="cls-1" d="M347.75,131.81v1.63a.84.84,0,0,1-.83.8H336.33a.81.81,0,0,1-.8-.8V112.59a.82.82,0,0,1,.8-.8h10.33a.82.82,0,0,1,.8.8v1.5a.82.82,0,0,1-.8.83h-7.59v6h6.79a.81.81,0,0,1,.83.77v1.4a.85.85,0,0,1-.83.83h-6.79V131h7.86a.84.84,0,0,1,.83.8h0Zm-68.84,1.5a.65.65,0,0,1-.6.93H276a1.07,1.07,0,0,1-1-.73l-1.33-4.93h-7l-1.27,4.93a1,1,0,0,1-1,.73h-2.17c-.5,0-.73-.43-.6-.93l6-20.75a1.1,1.1,0,0,1,1-.76h2.93a1,1,0,0,1,1,.76l6.4,20.75h0Zm-6.1-7.79-2.3-8.76c-.23-.9-.37-2.23-.5-3.13a26.11,26.11,0,0,1-.5,3.13l-2.16,8.76ZM300,121.29h-5.63a.82.82,0,0,0-.8.8v1.57a.82.82,0,0,0,.8.8h2.93V131a7.36,7.36,0,0,1-2.13.3c-3.53,0-5.63-2.13-5.63-8.13s1.8-8.46,5.36-8.46a8.54,8.54,0,0,1,4.06,1,.7.7,0,0,0,1-.37l.67-1.43a.73.73,0,0,0-.37-1,11.84,11.84,0,0,0-5.33-1.26c-5.79,0-9.13,4.43-9.13,11.36s2.73,11.49,9.06,11.49a15.19,15.19,0,0,0,4.93-.8c.8-.3,1-.63,1-1.4V122.1a.82.82,0,0,0-.8-.8h0Zm25.93,1.6c0,7.13-1.93,11.36-8.26,11.36H312.2a.81.81,0,0,1-.8-.8V112.6a.82.82,0,0,1,.8-.8h5.3c4.73,0,8.39,2.53,8.39,11.09Zm-3.73.2c0-3.56-.5-5.5-1.5-6.8a4.35,4.35,0,0,0-3.53-1.53h-2.2v16.42h2.13c3.26,0,5.1-1.4,5.1-8.09ZM251.68,111.8h-3.77a1.07,1.07,0,0,0-1,.67l-4.35,15.27a25.67,25.67,0,0,0-.44,3.38,25.67,25.67,0,0,0-.44-3.38l-4.35-15.27a1.07,1.07,0,0,0-1-.67h-3.78a.8.8,0,0,0-.84.76v20.92a.82.82,0,0,0,.84.76h1.71a.85.85,0,0,0,.84-.76l0-14c0-.8-.17-3.73-.22-4.63.27,1.15.66,3.13,1,4.59l4.12,14a1,1,0,0,0,1,.76h2.33a1,1,0,0,0,1-.76l4.12-14c.36-1.46.75-3.43,1-4.59-.05.9-.21,3.83-.22,4.63l-.05,14a.85.85,0,0,0,.84.76h1.69a.83.83,0,0,0,.84-.76V112.56a.8.8,0,0,0-.84-.76h0ZM373.2,127.92c0,4-2.46,6.33-6.73,6.33h-7a.8.8,0,0,1-.8-.76V112.61a.82.82,0,0,1,.8-.8h6.63c3.86,0,6.13,2.4,6.13,5.7,0,2.36-1.1,4-3.67,4.83a5.34,5.34,0,0,1,4.63,5.6h0Zm-11-6.86h2.93c2.3,0,3.46-1.27,3.46-3.17s-1.06-3.13-3.26-3.13h-3.13v6.3Zm7.2,6.43c0-2-1.46-3.63-4-3.63h-3.23v7.3H366c2.1,0,3.4-1.4,3.4-3.66h0ZM422,133.22c.23.6.13,1-.57,1H419a.9.9,0,0,1-1-.7,47.34,47.34,0,0,0-2.26-6.43c-.77-1.46-1.77-2.8-3.77-2.8h-1.36v9.16a.8.8,0,0,1-.8.76H407.9a.8.8,0,0,1-.8-.76V112.6a.82.82,0,0,1,.8-.8h5.86c5.63,0,6.79,3.46,6.79,5.7a5.3,5.3,0,0,1-4.9,5.5,5.54,5.54,0,0,1,3.56,3.2c.54,1.13,1.84,4.36,2.8,7h0ZM417,118a3,3,0,0,0-3.3-3.07h-3v6.56h2.67A3.33,3.33,0,0,0,417,118h0Zm27,3.33h-5.63a.81.81,0,0,0-.8.8v1.57a.82.82,0,0,0,.8.8h2.93V131a7.36,7.36,0,0,1-2.13.3c-3.53,0-5.63-2.13-5.63-8.13s1.8-8.46,5.36-8.46a8.61,8.61,0,0,1,4.07,1,.69.69,0,0,0,1-.37l.67-1.43a.74.74,0,0,0-.37-1,11.84,11.84,0,0,0-5.33-1.26c-5.8,0-9.12,4.43-9.12,11.36s2.73,11.49,9.06,11.49a15.19,15.19,0,0,0,4.93-.8c.8-.3,1-.63,1-1.4V122.11a.82.82,0,0,0-.8-.8h0Zm-48-9.49H394a.74.74,0,0,0-.83.8v14.52c0,3.4-1.4,4.4-3.87,4.4-2.73,0-3.7-1.67-3.7-4.6V112.61a.72.72,0,0,0-.8-.8H382.9a.73.73,0,0,0-.77.8V127.3c0,4.53,2.33,7.16,7.26,7.16s7.33-2.53,7.33-7.16V112.61a.75.75,0,0,0-.8-.8h0Zm30.92-7.91a.65.65,0,0,1-.6.93h-2.33a1.1,1.1,0,0,1-1-.73l-1.33-4.93h-7l-1.27,4.93a1,1,0,0,1-1,.73h-2.16c-.5,0-.74-.43-.6-.93l6-20.75a1.11,1.11,0,0,1,1-.77h2.93a1,1,0,0,1,1,.77l6.39,20.75h0Zm-6.09-7.79-2.3-8.76a30.85,30.85,0,0,1-.5-3.13,26.11,26.11,0,0,1-.5,3.13l-2.16,8.76ZM404.42,82.38h-13a.85.85,0,0,0-.84.8v1.63a.82.82,0,0,0,.84.77h4.73V104a.82.82,0,0,0,.8.8h1.93a.82.82,0,0,0,.8-.8V85.58h4.73a.75.75,0,0,0,.76-.77V83.18a.78.78,0,0,0-.76-.8ZM265.52,104.2a.93.93,0,0,0,.9.63h3.13a.84.84,0,0,0,.83-.77V83.14a.84.84,0,0,0-.83-.77h-1.7a.81.81,0,0,0-.8.77l0,13c0,1.56.17,3.63.33,5.36-.47-1.63-.87-3.27-1.46-4.73L260.32,83a1.19,1.19,0,0,0-1.07-.6h-3.13a.78.78,0,0,0-.8.77v20.92a.81.81,0,0,0,.8.77h1.76a.81.81,0,0,0,.8-.77l0-13.19c0-1.23-.3-3.89-.47-5.59a35.94,35.94,0,0,0,1.47,5l5.86,14h0Zm-30.26-6.69V83.19a.72.72,0,0,0-.8-.8h-1.93a.73.73,0,0,0-.77.8V97.88c0,4.53,2.33,7.16,7.26,7.16s7.33-2.53,7.33-7.16V83.19a.75.75,0,0,0-.8-.8h-1.9a.74.74,0,0,0-.83.8V97.71c0,3.4-1.4,4.4-3.86,4.4-2.73,0-3.7-1.67-3.7-4.59h0ZM412.73,78.62a2,2,0,0,0,1.93,2,2,2,0,0,0,2-2,2,2,0,0,0-2-1.93,1.91,1.91,0,0,0-1.9,1.93h0Zm8.73,2a2,2,0,0,0,2-2,2,2,0,0,0-2-1.93,1.91,1.91,0,0,0-1.9,1.93,2,2,0,0,0,1.93,2h0Zm23.09,1.77h-13a.85.85,0,0,0-.84.8v1.63a.82.82,0,0,0,.84.77h4.73V104a.82.82,0,0,0,.8.8H439a.82.82,0,0,0,.8-.8V85.59h4.73a.76.76,0,0,0,.77-.77V83.19a.78.78,0,0,0-.77-.8ZM327.67,101.61h-7.86V94.48h6.8a.85.85,0,0,0,.83-.83v-1.4a.82.82,0,0,0-.83-.77h-6.8v-6h7.59a.81.81,0,0,0,.8-.83v-1.5a.82.82,0,0,0-.8-.8H317.08a.82.82,0,0,0-.8.8V104a.82.82,0,0,0,.8.8h10.59a.84.84,0,0,0,.84-.8v-1.63a.84.84,0,0,0-.84-.8Zm31.48,2.46a16.55,16.55,0,0,0,5.43,1c4.63,0,7.36-2.7,7.36-6.59,0-3.53-2-5.06-4.39-6.16l-1.8-.83c-1.77-.83-3.26-1.5-3.26-3.27s1.1-2.93,3.26-2.93a9.26,9.26,0,0,1,3.46.7.68.68,0,0,0,.9-.5l.37-1.5a.78.78,0,0,0-.43-1,13.73,13.73,0,0,0-4.36-.8c-4.26,0-6.79,2.63-6.79,6.16,0,3.23,1.87,4.63,3.93,5.6l1.37.63c2.06,1,4.13,1.87,4.13,4.13,0,2.06-1.6,3.16-3.8,3.16a12.83,12.83,0,0,1-4.46-1,.73.73,0,0,0-1,.5l-.4,1.67a.83.83,0,0,0,.5,1h0Zm-7.1-.27c.23.6.13,1-.57,1h-2.43a.9.9,0,0,1-1-.7,47.34,47.34,0,0,0-2.26-6.43C345,96.24,344,94.9,342,94.9h-1.36v9.16a.81.81,0,0,1-.8.77h-1.93a.81.81,0,0,1-.8-.77V83.18a.82.82,0,0,1,.8-.8h5.86c5.63,0,6.79,3.47,6.79,5.7a5.3,5.3,0,0,1-4.9,5.5,5.52,5.52,0,0,1,3.56,3.2c.53,1.13,1.83,4.36,2.8,7h0ZM347,88.54a3,3,0,0,0-3.3-3.06h-3V92h2.66a3.33,3.33,0,0,0,3.66-3.5h0ZM383.59,104V83.18a.82.82,0,0,0-.8-.8h-2.06a.82.82,0,0,0-.8.8V104a.82.82,0,0,0,.8.8h2.06a.81.81,0,0,0,.8-.8ZM283,82.38h-2.07a.82.82,0,0,0-.8.8V104a.82.82,0,0,0,.8.8H283a.82.82,0,0,0,.8-.8V83.18a.82.82,0,0,0-.8-.8Zm24.9,0h-2a1,1,0,0,0-1,.83l-3.83,15.06c-.27,1.07-.5,2.83-.7,4.37a30.58,30.58,0,0,0-.7-4.37l-3.83-15.09a1,1,0,0,0-1-.8h-2.3a.67.67,0,0,0-.63.93L298,104.09a1.07,1.07,0,0,0,1,.73h2.53a1.07,1.07,0,0,0,1-.73l6-20.82a.66.66,0,0,0-.63-.9h0ZM437.45,67.31h6.74a.53.53,0,0,0,.53-.51v-1a.54.54,0,0,0-.53-.51h-5V60.71h4.32a.54.54,0,0,0,.53-.53v-.89a.52.52,0,0,0-.53-.49h-4.32V55H444a.52.52,0,0,0,.51-.53v-.95A.51.51,0,0,0,444,53h-6.57a.51.51,0,0,0-.51.51V66.8a.51.51,0,0,0,.51.51Zm-7.05,0h1.72c.36,0,.49-.25.27-.59l-4.56-7.31L432,53.62c.17-.25.15-.59-.28-.59h-1.61a.72.72,0,0,0-.68.34L425.66,59V53.54a.51.51,0,0,0-.51-.51h-1.23a.51.51,0,0,0-.51.51V66.83a.51.51,0,0,0,.51.48h1.23a.51.51,0,0,0,.51-.48V59.9l4,7a.72.72,0,0,0,.72.38h0Zm-14.72.13a5.87,5.87,0,0,0,2.78-.61.45.45,0,0,0,.19-.62l-.47-1a.42.42,0,0,0-.59-.19,4.7,4.7,0,0,1-1.65.4c-2.05,0-3.46-1.5-3.46-5.28s1.31-5.26,3.46-5.26a3.78,3.78,0,0,1,1.57.36.42.42,0,0,0,.61-.19l.45-.87a.5.5,0,0,0-.21-.7,5.1,5.1,0,0,0-2.59-.57c-3.43,0-5.66,2.82-5.66,7.21,0,4.73,2.1,7.33,5.57,7.33h0Zm-12.79-.13h1.31a.51.51,0,0,0,.51-.51V53.53a.51.51,0,0,0-.51-.51h-1.31a.51.51,0,0,0-.51.51V66.8a.51.51,0,0,0,.51.51ZM388,66.82V53.53a.51.51,0,0,1,.51-.51h3.73c3.58,0,4.33,2.21,4.33,3.62a3.37,3.37,0,0,1-3.11,3.5,3.57,3.57,0,0,1,2.27,2c.34.72,1.17,2.78,1.78,4.47.15.38.08.66-.36.66h-1.55a.58.58,0,0,1-.64-.45,30.21,30.21,0,0,0-1.44-4.09,2.67,2.67,0,0,0-2.4-1.78h-.87v5.83a.52.52,0,0,1-.51.49h-1.23a.51.51,0,0,1-.51-.49h0Zm2.25-7.65H392a2.12,2.12,0,0,0,2.33-2.23,1.91,1.91,0,0,0-2.1-1.95h-1.93v4.18Zm-7.6,7.63v-1a.54.54,0,0,0-.53-.51h-5V60.71h4.32a.54.54,0,0,0,.53-.53v-.89a.52.52,0,0,0-.53-.49h-4.32V55H382a.52.52,0,0,0,.51-.53v-.95A.51.51,0,0,0,382,53h-6.57a.51.51,0,0,0-.51.51V66.8a.51.51,0,0,0,.51.51h6.74a.53.53,0,0,0,.53-.51Zm-18.49.64c3.05,0,4.66-1.61,4.66-4.56V53.53a.48.48,0,0,0-.51-.51h-1.21a.47.47,0,0,0-.53.51v9.24c0,2.16-.89,2.8-2.46,2.8-1.74,0-2.35-1.06-2.35-2.92V53.54a.46.46,0,0,0-.51-.51h-1.23a.46.46,0,0,0-.49.51v9.35c0,2.88,1.48,4.56,4.62,4.56h0Zm-11.08-8.37h-3.58a.52.52,0,0,0-.51.51v1a.51.51,0,0,0,.51.51h1.87v4.18a4.56,4.56,0,0,1-1.36.19c-2.25,0-3.58-1.36-3.58-5.17s1.15-5.38,3.41-5.38a5.53,5.53,0,0,1,2.59.61.44.44,0,0,0,.61-.23l.42-.91a.47.47,0,0,0-.23-.66,7.44,7.44,0,0,0-3.39-.8c-3.69,0-5.81,2.82-5.81,7.23s1.74,7.31,5.77,7.31A9.64,9.64,0,0,0,353,67c.51-.19.66-.4.66-.89V59.6a.51.51,0,0,0-.51-.51h0Zm-23.45-6h-1.08a.51.51,0,0,0-.51.49l0,8.25c0,1,.11,2.31.21,3.41a27.94,27.94,0,0,0-.93-3l-3.58-8.75a.77.77,0,0,0-.68-.38h-2a.5.5,0,0,0-.51.49V66.84a.51.51,0,0,0,.51.49h1.12a.51.51,0,0,0,.51-.49l0-8.39c0-.78-.19-2.48-.29-3.56a22.73,22.73,0,0,0,.93,3.16l3.73,8.88a.59.59,0,0,0,.57.4h2a.53.53,0,0,0,.53-.49V53.53a.53.53,0,0,0-.53-.49h0ZM310.6,67.44c-3.31,0-5-2.33-5-7.21s1.67-7.33,5-7.33,5,2.4,5,7.33-1.67,7.21-5,7.21Zm2.63-7.27c0-3.05-.47-5.47-2.65-5.47-2.35,0-2.63,2.65-2.63,5.47,0,3.58.64,5.4,2.63,5.4s2.65-2.1,2.65-5.4ZM295.4,66.85a.69.69,0,0,0,.63.47h1.61a.67.67,0,0,0,.63-.47l3.8-13.25a.42.42,0,0,0-.4-.57H300.4a.63.63,0,0,0-.64.53l-2.44,9.58a27.28,27.28,0,0,0-.44,2.78,19.36,19.36,0,0,0-.44-2.78L294,53.54a.63.63,0,0,0-.66-.51h-1.46a.43.43,0,0,0-.4.59l3.92,13.23Zm-26.58-6.61c0-4.81,1.67-7.33,5-7.33s5,2.4,5,7.33-1.67,7.21-5,7.21-5-2.33-5-7.21Zm2.35-.06c0,3.58.64,5.4,2.63,5.4s2.65-2.1,2.65-5.4c0-3-.47-5.47-2.65-5.47-2.35,0-2.63,2.65-2.63,5.47ZM257,55.07h3V66.81a.51.51,0,0,0,.51.51h1.23a.52.52,0,0,0,.51-.51V55.07h3a.48.48,0,0,0,.49-.49v-1a.5.5,0,0,0-.49-.51H257a.53.53,0,0,0-.53.51v1a.51.51,0,0,0,.53.49Zm-4.13-2h-8.27a.54.54,0,0,0-.53.51v1a.51.51,0,0,0,.53.49h3V66.81a.51.51,0,0,0,.51.51h1.23a.51.51,0,0,0,.51-.51V55.07h3a.48.48,0,0,0,.49-.49v-1a.5.5,0,0,0-.49-.51Zm-21.65,7.21c0-4.81,1.67-7.33,5-7.33s5,2.4,5,7.33-1.67,7.21-5,7.21-5-2.33-5-7.21Zm2.35-.06c0,3.58.63,5.4,2.63,5.4s2.65-2.1,2.65-5.4c0-3-.47-5.47-2.65-5.47-2.35,0-2.63,2.65-2.63,5.47Z" transform="translate(-38.09 -31.64)"/><path class="cls-3" d="M130.76,117.28c0-.21-.51-.12-.73-.12s-.4.68-.63.52a2.54,2.54,0,0,1-1.29-1.86l-1.8.06c0-.49-1.14-.19-1,.48.22,0,1.07.08,1.06-.06.75.82,1.55.86,1.86,1.42.46.83.21,1.76.87,2.16.16-1.7,1.69-1.4,1.64-2.6h0Zm23.91-37.43a7.67,7.67,0,0,0-.17-1.34l-.5.57c-.33-.1-.81-1.34-1.23-1.82l-.9.16c.38,1.12,1.69,1.45,1.42,2.38,0,.15.94.34,1.37,0h0Zm-5.84.32c1.09,4.92,4.34,5.07,4.34,5.07l.63-.66s-3.25-.15-4.34-5.07a3.12,3.12,0,0,0-.63.66Zm-8.91,4.53-1.5,0v.63l1,0,0,.93H140l-.12-1.57Zm2.27-4s-.32,2.55,2,2.29l-.36.29c-2.38.19-2-2.29-1.63-2.58Zm2.6.67-1.37,0v-.78l1.36,0v.78Zm-10.3.75a4.81,4.81,0,0,0,0,1.06l1.59,0-.23-.56a3.06,3.06,0,0,0,.06-.57l.65-.29c.87.12,1.22,2,3,1.7.07,0,0-.62,0-.62-1.67-.32-1.75-1.24-1.75-1.24,1.2-1.93,3.22-2,3.22-1.61l-.2.85c0,1.9.49,3.59,2.73,3.55a3.35,3.35,0,0,0,3.29-2.25,2.37,2.37,0,0,1,.88,1.11c.3.7,0,.77,0,1.34,0,.21-.86.16-.56,1.14l1.09,0,.84-1.36a6.73,6.73,0,0,0-3.77-5.15,8.93,8.93,0,0,0-2.61-.66l-2.31,0a4.73,4.73,0,0,0-1.58.73c-1.12.3-1-1-1-1,.5-.67.56-.86,2.58-1.46l2.67-.19c-.12-.22.16-.78.16-.78-5,0-6.54,2.14-6.85,2.46a6.54,6.54,0,0,0-1,1.43,4.48,4.48,0,0,0,.94.19l.28-.57c.36.06.87,0,.87.34,0,.85-.64.51-.63,1.5h-.58c-.87,0-1.81-.24-1.79.75h0Zm-1.34,12.55-.65,0a3.66,3.66,0,0,0,.33,1c.23.61-.26.93.84,1.45l.07,2h.62l-.09-2.6-.55.06-.57-2Zm4.28-22.34c-.65-.06-1.13,1.64-2.79,1.82-2.23.23-3.06-1.5-3.8-3a6.2,6.2,0,0,0-.32-1.62l-.57.29c0,2.33,1,5.06,3.27,5.8l0,2,.72-.08c.29,0,.35-.92.63-1.49a4.11,4.11,0,0,1,1.72-1,24.45,24.45,0,0,1,3.53-.42v-.85l-1.67,0-.58-.27.35-.85a.72.72,0,0,0-.51-.34h0Zm18,5.1c.08.28-1.46-2.51-2-3.28C152.55,73,152.11,73,151.3,72c-.44-.63-1.18-2.65-2-2.71-2.39-.17-4,1.26-5.22,1.36-.66.05.49-.78.49-.78.21-.64-4.2-.84-4.2-.84s-3.25,0-3.44,1.47V71l2.71.45c1.16.33,1.37-.1,2.75.09l2.53,0,2.24-.68,1.19.11c.36,0,.71.5.85.77.82,1.61,1.68,1.8,2.9,3,2.32,2.24,2.34,3.13,3.35,2.69h0Zm-39.76,2.39-.4.93,0-.92.43,0h0Zm-3.33-.16a2.41,2.41,0,0,1,1,.67,1.81,1.81,0,0,1,.17.7c-.38.58-1.83-.64-1.13-1.37Zm12,28.58c.76-.8.31-1.44.81-1.37s1.09,1.33,1.09,1.33a2.19,2.19,0,0,0,.83,1.23c.84.78,3.29.89,4.42,1.41l2.34,2.69a7.48,7.48,0,0,1-2.79-1.12,4.41,4.41,0,0,0-5.64.53c-2.15-2-3.06-1.51-6.93.51-1.07.56-1.73-.34-.66-.52.3-.15,1.49-2.46,2.31-2.65a9,9,0,0,0,4.23-2h0Zm47.5-2.11a3.88,3.88,0,0,1-3.38-1.58c-2.73,4.76-5.29,1.74-5.29,1.74,0-3.39-4.31,17.23-5,20.39-1.24,2.34-5.89,10.77-20.21,15l.53-.28c1.22-.7,1.6-1.74,2.46-3a9.64,9.64,0,0,0,1.76-2.82c.08-.25-.21-.7-.54-1.26.64,0,2.73-1.84,3.35-2.47,1.87-1.88,3.48-2.94,5.13-4.88,2.13-2.56,4.09-4,5.65-6.52a12.14,12.14,0,0,0,1.75-5.37c.46-3.24,1.89-7.33,2.06-10.76a17.89,17.89,0,0,0-1.91,4.77c-.63,2.38-.73,3.79-1.37,6s-.87,3.86-2.24,5.46a21.34,21.34,0,0,1-3.75,3.36c-3.76,2.85-6.21,7.15-11.47,8.24-2.58-1.92-5.84-3.85-6.74-3.74a11,11,0,0,1-1.87.35l-.3,1.84s1,.42,1,.18c-.11-1.13.89-1.21.84-.67s.87,4.07-.59,5.88c-.26.33.12-4.8-1.45-4.19l-.57,2.35-.72,0a8.24,8.24,0,0,0,.08-2c-.05-1.43-.47-2.64-2.68-3.76-.47-.24-.5,2.89-1,3.39l-1.64.76c-.3-1-.73-2.38-.23-2.39,1.52,0,.83-1.32,1.22-2.23.25-.58.68-.74.58-1.51-.4-3.09.06-6.94-.45-6.92s-.77.23-1.08,0,0-1.06,0-1.06c-1.58.2-.92,6.74-.92,6.74a22.91,22.91,0,0,1-2.7,2.51s-.49.38-.59.33c-1.86,0-3.75,3.15-3.75,3.15-.71.16-3.19-4.27-3.3-4.19-.34-1.47.3-.48-.85-3.66a57.89,57.89,0,0,0-1.69-6.35c-2.63-2.67-2.34-14.46-3.47-17.43-.68-1.77-3.07-2.36-3.31-4.46-.42-3.69.2-5.31.85-8.64a7.17,7.17,0,0,1,.49-2.44c.53-1,1.12-1.82,2.3-1.88s1.31,1,2.22,1.55,1.15,1,2.06,1.13c3.34.38,3-.67,3-.67l1.63-.9c-.52-.34-1.35.25-2.23.29a6.14,6.14,0,0,1-2.53-.2c-1-.31-2.76-.91-2-1.55.52-.45.82.82,1.81.08,0,0-1.6-1.36-1.1-2.43-.32-.32.16-.76.54-1a2,2,0,0,1,1-.25,4.72,4.72,0,0,0-.06,2.33,2.75,2.75,0,0,0,2.15,1.69,2.78,2.78,0,0,0,1.73-.13c.94-.31,1.64-.69,1.82-1.69a9.94,9.94,0,0,1,.23-1.56,9.49,9.49,0,0,0,1.21,1.44c.38.34,0,.83.26,1.26a1.21,1.21,0,0,0,.74.54c.49.15.9.12,1.71-.62a.68.68,0,0,0,.05-.78c-.39-.76-.91.74-3.56-2.49a3.5,3.5,0,0,0-2.2-1,6.3,6.3,0,0,0-3-.18c-.32.11-.4,0-.74-.61a2.47,2.47,0,0,1,.56-.51c1.47-.8,3.54.09,4.32-.58-1.16-.24-.61-.51-1.1-.6-1.67-.29-1.23-.17-3.83-.08a5.67,5.67,0,0,0-2.42,1.07,18.13,18.13,0,0,0-1.74,1.9c-.35.19-.64-.56-.75-.68a10.48,10.48,0,0,1,1.85-2.89,10.14,10.14,0,0,1,3.19-1.74c1.09-.48,1.87.11,3,.32a28.88,28.88,0,0,1,3.21.88c.94.25.8,1.42,1.72,1.77.24.09.47-.05.65.12a.5.5,0,0,1,0,.71c-.4.47-1-.09-1.6-.3-.35-.12-.44-.41-.81-.47a2.12,2.12,0,0,0-.65.09c-.87.11,1.11.76,1.71,1.35s.61,1.67,1.59,2c.45.15.82-.14,1.23.1s.5.77.55,1.32a4.61,4.61,0,0,1,0,.63,3.11,3.11,0,0,1-1.52,2.45c-1.1,1.18-.5,6.27-.35,8.48,0,0-2.83,4.94-.89,7.43a11.68,11.68,0,0,0,2.22,2.21s-1.16,3.35-2,3.57c-.79-.17-5.14,1.37-6,4.36l-.12.81c0,.31-2.24.46-3.9-1.07-.46-.42-.79,3.08-.08,5,.32.93.81,2.66,3.22,2,.82,0,2.53-.38,3.11-1,.15.15,4.09,2.34,5.74,2.29,2.15-.08,3-1.41,3-1.71a13.67,13.67,0,0,0-1.88.07c-3.5.37-3.23-1.58-3.23-1.58,1.34-.82,1.48-1,3.12-.77a5.66,5.66,0,0,1,2.31.68,2.42,2.42,0,0,0,.79-.05,7.4,7.4,0,0,1,4.66-.66c.56.09,2.51,1.35,4.59.54l-.6-.25,1.08,0-.48.22c1.16.44.63-.12,2-.07,1.81.08,1.08,4.13,5.54,3.48,2-.29,1.61-7.54,1.61-7.54l-.94,0c0,2.47-.78,4.13-1.43,4.18-1.44.12-1.44-1.54-4.38-2.78,0,0-1-1.28.37-1.12,1.09.13,1.2,2.11,3.92,1.48l0-2.21c-4.12.14-4.08-3.73-8.48-3.65-1.48,0,.48,1.25-1.32,1.39-1.22.09-.56-.68-2.7-.33-.57.09-1.51-1.35-1.38-2.25s.93-.26,1.12-1.1c0,0-1-3,1-2.88,1,.07,2.77,2.87,3.74-.41.51,0-.44-.12-.44-.12-.25-.23-.18,1.07-1,.67-1.32-.66-.84-1.24-2.93-1-3,.31-2.16,3.3-3,2.72-4.52-3.09-6.46-4.79-3.68-10.11l.4,1c-.18-3.17-.58-8.45.08-10a15.79,15.79,0,0,0,.56-2.92c.52-3.13.49-6.78-.62-7.17-3.48-1.22-2.64-4.43-6.23-4.85l-6.58.19s-.92-3.76,3.37-5c0,0-.5-5.07.93-6.39,1.12-1,3.18,0,2.34-3.33-.15-.61-.56-.58-.9-1-.79-.89-1.17-.38-2-2.33-.51-1.25,2.35-3.19,2.35-3.19A12.06,12.06,0,0,0,129.91,40c3.72,6.71,12,6,12,6,2,.07,4.16.12,6.1,2.48,1.33,1.61,1.61,2.81,3.72,3.91a3.87,3.87,0,0,0,4-.27,5.8,5.8,0,0,1-4.89-3.34c-3.55-6.93-7-6.54-7.92-6.25.86-.4.8-1.26,3.85-.85,4.44.6,6.61,8,9.46,8.41,4.35.56,4.24,1.32,3.23,5.31a29.36,29.36,0,0,0,0,15.39c.88,3.54,3.46,5,3.77,8.62.49,5.77-2,7.59-.1,13.7,1.3,4.19-.84,8.93,3.86,11.16l.55-.73a4.19,4.19,0,0,1-1.67-6.44c-.05,6.92,5.6,7.29,5.6,7.29-1.87-1.28-.37-2.25-.37-2.25,2.43-.79,3.77,3.62.72,3.93h0Zm-54.54,29a14.78,14.78,0,0,1,.09,2.49c-.24-.6-.93-1.92-.93-1.92a7.41,7.41,0,0,0,.65-1.91c.24-1.42.7-2.65,1.83-3a14.73,14.73,0,0,1-1.07,2.12,3.69,3.69,0,0,0-.57,2.24Zm-5.16,1.44c1.81,5.53,8.44,6.24,10.47,7a5.7,5.7,0,0,0,1.79.22l-1.09,7c-13.83,15.69-19.5,26.81-19.5,26.81-2-9.22-1.18-27.68-1.18-27.68s5.09-7.27,9.5-13.35h0Zm16.67,14.59.82-6.15c25.39-3,30.1-16.92,30.1-16.92s1.48-2.34,1.72-1.59a94.41,94.41,0,0,0,10,20.51L152.7,178.41c-1-1.18-21.69-26.31-23.87-27.3h0Zm-36-40c.12,3.53-3.21,5.48-6.24,5.58a1.06,1.06,0,0,0-.38-.55c3-.11,6.12-1.69,6-5.22,0,0,.61-.09.62.19ZM196.64,97.52c.08-8-4.81-5.35-6.47-9.45-1.58-3.89,1.32-7.73-2-10.52-1.17-1-2.22-1-3.53-1.85a24.89,24.89,0,0,1-7.41-7.36c-1.3-2.07.1-4.15-1.23-6.31-.71-1.15-1.79-1.37-2.33-2.6s.63-2.43-.27-3.45a16,16,0,0,1-4.14-6.92c-3.7-11.67-8.45-10.15-9.48-10.82a46.61,46.61,0,0,0-11.38-5,38.56,38.56,0,0,0-10-1.56c-5.06-.1-6,1.65-6.81,1.58-9.93-.85-14.52,2.2-20.28,5.09-7.16,3.59-11.07,10.06-12.88,15.91-.91,2.91-1.72,4.51-2.77,7.51a6.79,6.79,0,0,1-3.33,3.93c-1.42.75-2.4,1.56-4.35,1.63-1.66.06-3.83.95-4.27,1.85l.11,3.23a7.41,7.41,0,0,0,2.47-1.69c1.19-1.1,2.24.06,4.93.39,6.29.2,9.74-3.69,10.1-4.52.54-1.15,0-4.31.7-4.83l1,0c-.23,1.89.13,4.14-1.37,6.19a9.76,9.76,0,0,1-5.15,3.5,14.52,14.52,0,0,1-8.3.62c-2.36-.3-.17,3.39-6.91,2.66-2.27-.24-4.58,1.8-4.64,3.7A96.41,96.41,0,0,0,77,88.53l3.31,2.9s-.75-3.76,1.74-2.68c3.48,1.51,9.47.06,10-.38-1.26,1.17-1.44,2.48-2.4,3.71-2.15,2.62-6.54,4.1-5.48,8.84,2.21,9.88-2.39,9.38-2.39,9.38-2.88.1-5-4-5-4l.21,4.37c0,2.26,4.28,7.33,7.27,6.09l2,3.83c7.07,1.16,0,6.52.12,8.5l2.94,6.16c.15-.5.45-6.51,3.35-6.25a3.14,3.14,0,0,1,3,2.71c-5,3.76,1,9.95,4.6,11.84a2.1,2.1,0,0,1,1.25-1c-1.76-.65-2.87-2-2.53-3.18s.62-1,1.65-1.37c1.31-.42,1.66-.06,2.87-.67s1.75,1.17,2.92.82a19.75,19.75,0,0,0,3.45-2.21c-2.19,2.83-4.1,6.87-8.24,12.39-.8,1.07-.88,9.66-.46,17.93l.07,1.35c.38,6.63,1.06,12.77,1.93,14.33.11.19-.56.28,3.73-6.17l1-1.61c4.62-7.31,11.11-16.15,17.31-21.87l1.39-8.69a5,5,0,0,0,1.1.1l-1,8.58c1.84.51,5.17,4.94,13.88,15.57l1.53,1.86c5,6,11,12.58,11.25,12.13,1.67-2.57,20.85-34.44,20.85-34.44s-5.63-8-7.3-13.22c2-2,1.91-.06,7.26,3.42,4.14,2.69,5.79.22,5.79.22s-3.85-2.28-3.86-4.57c0-5.07,2.06-4.9,3.14-4.76,2.56.33,1.37,2.63,1.37,2.63l2.7,0a3.49,3.49,0,0,0,1.16-1.1c2-4-6.85-6.2-8.29-7.46s-.58-3.79-.58-3.79c4.55,5.62,7.43,4.25,12.12,3l4.79-4.82c-5.08.6-10.56,5.15-14.49-6.54l1-.87c2.32,4.16,4.83,5.76,7.87,5.94l7.15-7.45c-8.33,5.8-7.73-5-7.73-5,8.51-.44,10.27-3.84,10.29-5.51h0Z" transform="translate(-38.09 -31.64)"/><path class="cls-3" d="M512.41,86.9h-7.2v5.81h6.54a.8.8,0,0,1,.79.79v1.39a.78.78,0,0,1-.79.79h-6.54v9.44a.8.8,0,0,1-.79.79h-1.91a.8.8,0,0,1-.79-.79V84.59a.8.8,0,0,1,.79-.79h9.9a.8.8,0,0,1,.79.79v1.49a.81.81,0,0,1-.79.83Z" transform="translate(-38.09 -31.64)"/><path class="cls-3" d="M533.2,105.92h-2.31a1.07,1.07,0,0,1-1-.73l-1.35-4.88h-6.93l-1.25,4.88a1,1,0,0,1-1,.73h-2.15c-.5,0-.73-.43-.59-.92l5.74-20.46a1.06,1.06,0,0,1,1-.73h3.2a1,1,0,0,1,1,.73L533.79,105c.13.5-.1.92-.59.92Zm-7.72-17.36c-.23-.89-.36-2-.49-2.94a21.77,21.77,0,0,1-.5,2.94l-2.15,8.71h5.38l-2.25-8.71Z" transform="translate(-38.09 -31.64)"/><path class="cls-3" d="M552.07,105a8.11,8.11,0,0,1-4.42,1.09c-5.21,0-8.48-4-8.48-11.39,0-6.83,3.43-11.19,8.78-11.19a6.84,6.84,0,0,1,4,1,.78.78,0,0,1,.33,1.06l-.69,1.35a.68.68,0,0,1-1,.33,5.22,5.22,0,0,0-2.51-.63c-3.23,0-5.25,2.31-5.25,8.15s2.18,8.19,5,8.19a6.89,6.89,0,0,0,2.84-.76.67.67,0,0,1,.92.3l.73,1.58a.74.74,0,0,1-.3,1Z" transform="translate(-38.09 -31.64)"/><path class="cls-3" d="M566.33,106.11c-4.88,0-7.2-2.38-7.2-7.1V84.59a.75.75,0,0,1,.79-.79h1.88a.74.74,0,0,1,.83.79V98.65c0,2.9,1,4.55,3.66,4.55,2.44,0,3.83-1,3.83-4.36V84.58a.71.71,0,0,1,.79-.79h1.91a.72.72,0,0,1,.76.79V99c0,4.79-2.51,7.1-7.26,7.1Z" transform="translate(-38.09 -31.64)"/><path class="cls-3" d="M591.48,105.92H582.6a.8.8,0,0,1-.79-.79V84.6a.8.8,0,0,1,.79-.79h1.88a.83.83,0,0,1,.83.79v18.15h6.17a.8.8,0,0,1,.76.79v1.58a.77.77,0,0,1-.76.79Z" transform="translate(-38.09 -31.64)"/><path class="cls-3" d="M606.65,87H602v18.15a.8.8,0,0,1-.79.79h-1.91a.8.8,0,0,1-.79-.79V87h-4.69a.83.83,0,0,1-.83-.79V84.6a.83.83,0,0,1,.83-.79h12.87a.8.8,0,0,1,.79.79v1.58a.8.8,0,0,1-.79.79Z" transform="translate(-38.09 -31.64)"/><path class="cls-3" d="M621.7,97.43v7.69a.8.8,0,0,1-.79.79H619a.83.83,0,0,1-.83-.79V97.5l-6-12.81c-.2-.46,0-.89.56-.89h2.54a1,1,0,0,1,1,.56l2.9,7.46a15.32,15.32,0,0,1,.86,3.37,13.88,13.88,0,0,1,.86-3.4l2.87-7.39a1,1,0,0,1,1-.59h2.38c.5,0,.73.36.46.92L621.7,97.44Z" transform="translate(-38.09 -31.64)"/><path class="cls-3" d="M652.16,106.11c-5.15,0-7.79-3.66-7.79-11.25s2.61-11.29,7.79-11.29S660,87.37,660,94.86,657.31,106.11,652.16,106.11Zm0-19.74c-3.66,0-4.13,4.09-4.13,8.48,0,5.58,1,8.35,4.13,8.35s4.09-2.77,4.09-8.35C656.25,90.46,655.82,86.37,652.16,86.37Z" transform="translate(-38.09 -31.64)"/><path class="cls-3" d="M678,86.9h-7.2v5.81h6.54a.8.8,0,0,1,.79.79v1.39a.78.78,0,0,1-.79.79h-6.54v9.44a.8.8,0,0,1-.79.79h-1.92a.8.8,0,0,1-.79-.79V84.59a.8.8,0,0,1,.79-.79H678a.8.8,0,0,1,.79.79v1.49a.81.81,0,0,1-.79.83Z" transform="translate(-38.09 -31.64)"/><path class="cls-3" d="M513.79,143a8.11,8.11,0,0,1-4.42,1.09c-5.21,0-8.48-4-8.48-11.39,0-6.83,3.43-11.19,8.78-11.19a6.84,6.84,0,0,1,4,1,.78.78,0,0,1,.33,1.06l-.69,1.35a.68.68,0,0,1-1,.33,5.22,5.22,0,0,0-2.51-.63c-3.23,0-5.25,2.31-5.25,8.15s2.18,8.19,5,8.19a6.89,6.89,0,0,0,2.84-.76.67.67,0,0,1,.92.3l.73,1.58a.74.74,0,0,1-.3,1Z" transform="translate(-38.09 -31.64)"/><path class="cls-3" d="M527.32,144.11c-5.15,0-7.79-3.66-7.79-11.25s2.61-11.29,7.79-11.29,7.79,3.8,7.79,11.29S532.47,144.11,527.32,144.11Zm0-19.74c-3.66,0-4.13,4.09-4.13,8.48,0,5.58,1,8.35,4.13,8.35s4.09-2.77,4.09-8.35C531.41,128.46,531,124.37,527.32,124.37Z" transform="translate(-38.09 -31.64)"/><path class="cls-3" d="M562,143.92h-2.18a.83.83,0,0,1-.83-.73l-.63-14.49c-.07-1.25-.07-4.13-.07-4.32-.07.5-.43,3.07-.69,4.32l-3,12.15a.94.94,0,0,1-.89.76h-2.51a1,1,0,0,1-.92-.76l-2.94-12.15c-.3-1.29-.66-3.93-.73-4.39,0,.2.07,3.14,0,4.39l-.73,14.46a.82.82,0,0,1-.79.76H543a.7.7,0,0,1-.66-.79l1.55-20.56a.89.89,0,0,1,.89-.76h3.37a1,1,0,0,1,.89.66l3,13c.26,1.22.46,3.4.5,3.83a27.58,27.58,0,0,1,.46-3.83l3-13a1,1,0,0,1,.92-.66h3.3a.83.83,0,0,1,.86.76l1.55,20.63a.62.62,0,0,1-.63.73Z" transform="translate(-38.09 -31.64)"/><path class="cls-3" d="M576.86,134.84h-2.67v8.28a.8.8,0,0,1-.79.79h-1.91a.8.8,0,0,1-.79-.79V122.59a.8.8,0,0,1,.79-.79h5.31c4.52,0,6.93,2.51,6.93,6.44s-2.67,6.6-6.87,6.6Zm-.13-10h-2.54v7h2.54a3.24,3.24,0,0,0,3.47-3.56c0-2.34-1.16-3.43-3.47-3.43Z" transform="translate(-38.09 -31.64)"/><path class="cls-3" d="M597.94,144.11c-4.88,0-7.2-2.38-7.2-7.1V122.59a.75.75,0,0,1,.79-.79h1.88a.74.74,0,0,1,.83.79v14.06c0,2.9,1,4.55,3.66,4.55,2.44,0,3.83-1,3.83-4.36V122.58a.71.71,0,0,1,.79-.79h1.91a.72.72,0,0,1,.76.79V137c0,4.79-2.51,7.1-7.26,7.1Z" transform="translate(-38.09 -31.64)"/><path class="cls-3" d="M625.43,125h-4.69v18.15a.8.8,0,0,1-.79.79H618a.8.8,0,0,1-.79-.79V125h-4.69a.83.83,0,0,1-.83-.79V122.6a.83.83,0,0,1,.83-.79h12.87a.8.8,0,0,1,.79.79v1.58a.8.8,0,0,1-.79.79Z" transform="translate(-38.09 -31.64)"/><path class="cls-3" d="M643.45,143.92H633.22a.8.8,0,0,1-.79-.79V122.6a.8.8,0,0,1,.79-.79h10.23a.8.8,0,0,1,.79.79v1.49a.81.81,0,0,1-.79.83h-7.53v5.81h6.87a.8.8,0,0,1,.79.79v1.39a.78.78,0,0,1-.79.79h-6.87v7h7.49a.83.83,0,0,1,.83.79v1.62a.8.8,0,0,1-.79.79Z" transform="translate(-38.09 -31.64)"/><path class="cls-3" d="M665.92,143.92h-2.34a.89.89,0,0,1-1-.69,44,44,0,0,0-2.34-6.54,4.28,4.28,0,0,0-4-2.61h-1v9.08a.79.79,0,0,1-.79.76H652.5a.79.79,0,0,1-.79-.76V122.57a.77.77,0,0,1,.79-.76h5.81c4.36,0,6.73,2,6.73,5.58a5.2,5.2,0,0,1-4.85,5.41,5.45,5.45,0,0,1,3.53,3.14c.53,1.12,1.88,4.52,2.77,7,.23.59.13,1-.56,1Zm-7.72-19h-3v6.37h2.64c2.28,0,3.63-1.25,3.63-3.4C661.47,126.07,660.41,124.88,658.2,124.88Z" transform="translate(-38.09 -31.64)"/><path class="cls-3" d="M689.38,144.11a16.22,16.22,0,0,1-5.35-1,.83.83,0,0,1-.5-1l.4-1.65a.72.72,0,0,1,1-.5,14,14,0,0,0,4.42,1c2.18,0,3.37-1.12,3.37-3.14s-1.29-2.71-3-3.53l-1.49-.73c-2.21-1.09-4.46-2.41-4.46-6s2.51-6,6.73-6a12.55,12.55,0,0,1,4.29.76.77.77,0,0,1,.43,1l-.33,1.49a.72.72,0,0,1-.92.53,9.44,9.44,0,0,0-3.4-.69c-2.15,0-3.14.92-3.14,2.74s1.62,2.41,3.4,3.3l1.72.86a6.2,6.2,0,0,1,3.86,6.11c0,3.86-2.44,6.5-7,6.5Z" transform="translate(-38.09 -31.64)"/><path class="cls-3" d="M715.88,143a8.11,8.11,0,0,1-4.42,1.09c-5.21,0-8.48-4-8.48-11.39,0-6.83,3.43-11.19,8.78-11.19a6.84,6.84,0,0,1,4,1,.78.78,0,0,1,.33,1.06l-.69,1.35a.68.68,0,0,1-1,.33,5.22,5.22,0,0,0-2.51-.63c-3.23,0-5.25,2.31-5.25,8.15s2.18,8.19,5,8.19a6.89,6.89,0,0,0,2.84-.76.67.67,0,0,1,.92.3l.73,1.58a.74.74,0,0,1-.3,1Z" transform="translate(-38.09 -31.64)"/><path class="cls-3" d="M725.58,143.92h-2a.8.8,0,0,1-.79-.79V122.6a.8.8,0,0,1,.79-.79h2a.83.83,0,0,1,.83.79v20.53A.83.83,0,0,1,725.58,143.92Z" transform="translate(-38.09 -31.64)"/><path class="cls-3" d="M745.65,143.92H735.42a.8.8,0,0,1-.79-.79V122.6a.8.8,0,0,1,.79-.79h10.23a.8.8,0,0,1,.79.79v1.49a.81.81,0,0,1-.79.83h-7.53v5.81H745a.8.8,0,0,1,.79.79v1.39a.78.78,0,0,1-.79.79h-6.87v7h7.49a.83.83,0,0,1,.83.79v1.62a.8.8,0,0,1-.79.79Z" transform="translate(-38.09 -31.64)"/><path class="cls-3" d="M768,143.92h-3.07a.91.91,0,0,1-.89-.63l-5.81-13.83c-.53-1.29-1.35-4.39-1.49-4.85,0,.33.5,4,.5,5.64v12.9a.79.79,0,0,1-.79.76h-1.75a.79.79,0,0,1-.79-.76V122.56a.77.77,0,0,1,.79-.76h3.1a1.19,1.19,0,0,1,1.06.59l5.58,13.5c.56,1.45,1.32,4.26,1.45,4.65,0-.23-.4-3.4-.4-5.45V122.55a.83.83,0,0,1,.83-.76H768a.79.79,0,0,1,.79.76v20.59a.79.79,0,0,1-.79.76Z" transform="translate(-38.09 -31.64)"/><path class="cls-3" d="M789.08,143a8.11,8.11,0,0,1-4.42,1.09c-5.21,0-8.48-4-8.48-11.39,0-6.83,3.43-11.19,8.78-11.19a6.84,6.84,0,0,1,4,1,.78.78,0,0,1,.33,1.06l-.69,1.35a.68.68,0,0,1-1,.33,5.22,5.22,0,0,0-2.51-.63c-3.23,0-5.25,2.31-5.25,8.15s2.18,8.19,5,8.19a6.89,6.89,0,0,0,2.84-.76.67.67,0,0,1,.92.3l.73,1.58a.74.74,0,0,1-.3,1Z" transform="translate(-38.09 -31.64)"/><path class="cls-3" d="M807.33,143.92H797.1a.8.8,0,0,1-.79-.79V122.6a.8.8,0,0,1,.79-.79h10.23a.8.8,0,0,1,.79.79v1.49a.81.81,0,0,1-.79.83H799.8v5.81h6.87a.8.8,0,0,1,.79.79v1.39a.78.78,0,0,1-.79.79H799.8v7h7.49a.83.83,0,0,1,.83.79v1.62a.8.8,0,0,1-.79.79Z" transform="translate(-38.09 -31.64)"/></g></svg>